<svg width="64" height="45" viewBox="0 0 64 45" fill="none" xmlns="http://www.w3.org/2000/svg">
<path d="M17.1975 31.6193C17.4551 30.5127 16.9868 28.9317 16.1671 28.1412L10.4765 22.653C8.69669 20.9365 7.99414 19.1071 8.50935 17.5261C9.04797 15.9452 10.7107 14.8611 13.193 14.4546L20.4995 13.2801C21.5534 13.0994 22.8414 12.196 23.3331 11.27L27.3611 3.47813C28.532 1.24219 30.1245 0 31.8574 0C33.5904 0 35.1828 1.24219 36.3537 3.47813L40.3817 11.27C40.6861 11.8573 41.3184 12.4219 41.9976 12.8058L16.776 37.1301C16.4482 37.4463 15.8861 37.1527 15.9798 36.701L17.1975 31.6193ZM47.5477 28.1457C46.7046 28.9588 46.2363 30.5172 46.5173 31.6239L48.1332 38.422C48.8123 41.2452 48.3908 43.3682 46.9388 44.3845C46.3221 44.8002 45.5833 45.014 44.8312 44.9943C43.6368 44.9943 42.2317 44.5652 40.6861 43.6844L33.8246 39.7545C32.7473 39.1447 30.9675 39.1447 29.8903 39.7545L23.0287 43.6844C20.4293 45.1524 18.2045 45.4008 16.776 44.3845C16.2374 44.0006 15.8393 43.4811 15.5817 42.8036L44.0584 15.3399C45.1356 14.301 46.6578 13.8267 48.1332 14.0751L50.4984 14.4591C52.9807 14.8656 54.6434 15.9497 55.1821 17.5307C55.6973 19.1116 54.9947 20.941 53.2149 22.6575L47.5477 28.1457Z" fill="#606060"/>
<path d="M52.1579 34.0897C52.3516 33.8153 52.4023 33.3366 52.2695 33.0366L51.3477 30.9542C51.0594 30.3029 51.0747 29.7324 51.3911 29.3555C51.7139 28.9811 52.2846 28.8582 53.0007 29.0046L55.106 29.4414C55.4109 29.5013 55.8601 29.3888 56.0968 29.1878L58.0584 27.4846C58.6254 26.9974 59.1948 26.8242 59.6629 27.0036C60.131 27.183 60.4219 27.6859 60.4875 28.4155L60.7019 30.9527C60.7183 31.144 60.8258 31.3631 60.9662 31.5378L51.4262 35.5456C51.3022 35.5977 51.1833 35.4596 51.2592 35.3464L52.1579 34.0897ZM60.7456 36.2864C60.4267 36.4204 60.1254 36.7959 60.0773 37.1262L59.7516 39.1432C59.6185 39.9817 59.2666 40.5158 58.7605 40.642C58.5473 40.6913 58.3237 40.673 58.1228 40.5898C57.8002 40.4661 57.4687 40.2039 57.15 39.8042L55.7371 38.0246C55.5145 37.7471 55.0338 37.5629 54.6744 37.6173L52.3804 37.9763C51.5136 38.1067 50.8848 37.944 50.6129 37.5195C50.5104 37.3593 50.4611 37.1767 50.4675 36.9657L61.2388 32.4407C61.6462 32.2695 62.1106 32.298 62.4813 32.5184L63.0771 32.8677C63.7021 33.2353 64.0296 33.7024 63.9979 34.1884C63.9598 34.6719 63.5649 35.0969 62.8917 35.3797L60.7456 36.2864Z" fill="#606060"/>
<path d="M4.70009 37.6087C4.55054 37.3097 4.14616 37.0279 3.81044 36.9887L1.4796 36.7168C0.750618 36.6318 0.246064 36.3336 0.0660001 35.8808C-0.108722 35.424 0.0664429 34.886 0.556071 34.3612L2.00141 32.8216C2.20775 32.5969 2.33146 32.1656 2.26934 31.8673L1.72141 29.3772C1.56762 28.66 1.69701 28.0979 2.09224 27.7967C2.48747 27.4955 3.08446 27.5042 3.77235 27.8144L6.15757 28.9045C6.33753 28.9865 6.58801 29.0063 6.81517 28.9765L5.64118 38.9481C5.62592 39.0777 5.44247 39.1079 5.37881 38.9879L4.70009 37.6087ZM10.9682 31.5362C10.929 31.8695 11.1155 32.3089 11.3879 32.5144L13.0359 33.7954C13.7222 34.3259 14.0256 34.8869 13.8858 35.3728C13.8234 35.5754 13.6951 35.753 13.5199 35.8791C13.2475 36.0867 12.8462 36.2323 12.3279 36.2986L10.0234 36.5882C9.66291 36.6353 9.257 36.9446 9.12608 37.2719L8.30084 39.3672C7.9843 40.1562 7.52367 40.5999 7.00657 40.6147C6.81147 40.6201 6.6229 40.57 6.43662 40.4591L7.76213 29.2006C7.81227 28.7747 8.07016 28.4012 8.45341 28.2018L9.06511 27.879C9.70777 27.541 10.291 27.5011 10.7114 27.7707C11.1265 28.0444 11.3106 28.5868 11.2278 29.2904L10.9682 31.5362Z" fill="#606060"/>
</svg>
