<svg width="45" height="45" viewBox="0 0 45 45" fill="none" xmlns="http://www.w3.org/2000/svg">
<path d="M8.47588 31.6193C8.7225 30.5127 8.27409 28.9317 7.48937 28.1412L2.04115 22.653C0.337176 20.9365 -0.335444 19.1071 0.157811 17.5261C0.673486 15.9452 2.26535 14.8611 4.64194 14.4546L11.6372 13.2801C12.6461 13.0994 13.8793 12.196 14.3501 11.27L18.2064 3.47813C19.3275 1.24219 20.8521 0 22.5112 0C24.1703 0 25.6949 1.24219 26.816 3.47813L30.6723 11.27C30.9638 11.8573 31.5692 12.4219 32.2194 12.8058L8.0723 37.1301C7.75842 37.4463 7.22032 37.1527 7.31 36.701L8.47588 31.6193ZM37.5331 28.1457C36.7259 28.9588 36.2775 30.5172 36.5465 31.6239L38.0936 38.422C38.7438 41.2452 38.3402 43.3682 36.9501 44.3845C36.3597 44.8002 35.6524 45.014 34.9323 44.9943C33.7888 44.9943 32.4436 44.5652 30.9638 43.6844L24.3945 39.7545C23.3632 39.1447 21.6592 39.1447 20.6279 39.7545L14.0586 43.6844C11.5699 45.1524 9.43996 45.4008 8.0723 44.3845C7.55663 44.0006 7.17548 43.4811 6.92885 42.8035L34.1924 15.3399C35.2237 14.301 36.6811 13.8267 38.0936 14.0751L40.3581 14.4591C42.7346 14.8656 44.3265 15.9497 44.8422 17.5307C45.3354 19.1116 44.6628 20.941 42.9589 22.6575L37.5331 28.1457V28.1457Z" fill="#606060"/>
</svg>
