<svg width="39" height="39" viewBox="0 0 39 39" fill="none" xmlns="http://www.w3.org/2000/svg">
<path d="M19.5 0C8.736 0 0 8.736 0 19.5C0 30.264 8.736 39 19.5 39C30.264 39 39 30.264 39 19.5C39 8.736 30.264 0 19.5 0ZM17.4135 29.5425C17.4135 29.7375 17.3745 29.913 17.2965 30.108C17.1405 30.459 16.8675 30.7515 16.497 30.9075C16.3189 30.9863 16.1263 31.027 15.9315 31.027C15.7367 31.027 15.5441 30.9863 15.366 30.9075C15.1919 30.8337 15.0331 30.7278 14.898 30.5955L8.97 24.6675C8.69801 24.3923 8.54548 24.0209 8.54548 23.634C8.54548 23.2471 8.69801 22.8757 8.97 22.6005C9.5355 22.035 10.4715 22.035 11.037 22.6005L14.469 26.0325V9.4575C14.469 8.658 15.132 7.995 15.9315 7.995C16.731 7.995 17.394 8.658 17.394 9.4575V29.5425H17.4135ZM30.0105 16.419C29.718 16.7115 29.3475 16.848 28.977 16.848C28.6065 16.848 28.236 16.7115 27.9435 16.419L24.5115 12.987V29.562C24.5115 30.3615 23.8485 31.0245 23.049 31.0245C22.2495 31.0245 21.5865 30.3615 21.5865 29.562V9.4575C21.5865 9.2625 21.6255 9.087 21.7035 8.892C21.8595 8.541 22.1325 8.2485 22.503 8.0925C22.854 7.9365 23.2635 7.9365 23.6145 8.0925C23.79 8.1705 23.946 8.268 24.0825 8.4045L30.0105 14.3325C30.576 14.9175 30.576 15.834 30.0105 16.419Z" fill="white"/>
</svg>
