<svg width="34" height="35" viewBox="0 0 34 35" fill="none" xmlns="http://www.w3.org/2000/svg">
<path d="M17 0C7.633 0 0 7.8575 0 17.5C0 27.1425 7.633 35 17 35C26.367 35 34 27.1425 34 17.5C34 7.8575 26.367 0 17 0ZM23.902 20.6325C23.647 20.895 23.324 21.0175 23.001 21.0175C22.678 21.0175 22.355 20.895 22.1 20.6325L17 15.3825L11.9 20.6325C11.407 21.14 10.591 21.14 10.098 20.6325C9.86088 20.3855 9.72791 20.0523 9.72791 19.705C9.72791 19.3577 9.86088 19.0245 10.098 18.7775L16.099 12.6C16.592 12.0925 17.408 12.0925 17.901 12.6L23.902 18.7775C24.395 19.3025 24.395 20.125 23.902 20.6325Z" fill="#606060"/>
</svg>
